<mxfile host="app.diagrams.net" agent="Mozilla/5.0 (Windows NT 10.0; Win64; x64) AppleWebKit/537.36 (KHTML, like Gecko) Chrome/134.0.0.0 Safari/537.36" version="26.0.10">
  <diagram name="MD" id="NSczYCSBloxKFk6C_LGK">
    <mxGraphModel grid="1" page="1" gridSize="10" guides="1" tooltips="1" connect="1" arrows="1" fold="1" pageScale="1" pageWidth="827" pageHeight="1169" math="0" shadow="0">
      <root>
        <mxCell id="0" />
        <mxCell id="1" parent="0" />
        <mxCell id="EcLt65H-t530gYK7MTd_-1" value="PERSONA&lt;div&gt;(Dependiente)&lt;/div&gt;" style="rounded=0;whiteSpace=wrap;html=1;" vertex="1" parent="1">
          <mxGeometry x="-322" y="221.12" width="120" height="60" as="geometry" />
        </mxCell>
        <mxCell id="EcLt65H-t530gYK7MTd_-2" value="JUGADOR" style="rounded=0;whiteSpace=wrap;html=1;" vertex="1" parent="1">
          <mxGeometry x="-420" y="408.12" width="120" height="60" as="geometry" />
        </mxCell>
        <mxCell id="EcLt65H-t530gYK7MTd_-3" value="DIRECTOR TÃ‰CNICO" style="rounded=0;whiteSpace=wrap;html=1;" vertex="1" parent="1">
          <mxGeometry x="-210" y="408.12" width="120" height="60" as="geometry" />
        </mxCell>
        <mxCell id="EcLt65H-t530gYK7MTd_-4" value="" style="endArrow=none;dashed=1;html=1;dashPattern=1 3;strokeWidth=2;rounded=0;entryX=0.5;entryY=1;entryDx=0;entryDy=0;exitX=0.5;exitY=0;exitDx=0;exitDy=0;" edge="1" parent="1" source="EcLt65H-t530gYK7MTd_-2" target="EcLt65H-t530gYK7MTd_-6">
          <mxGeometry width="50" height="50" relative="1" as="geometry">
            <mxPoint x="-260" y="437.12" as="sourcePoint" />
            <mxPoint x="-260" y="397.12" as="targetPoint" />
          </mxGeometry>
        </mxCell>
        <mxCell id="EcLt65H-t530gYK7MTd_-5" value="" style="endArrow=none;dashed=1;html=1;dashPattern=1 3;strokeWidth=2;rounded=0;entryX=0.5;entryY=1;entryDx=0;entryDy=0;exitX=0.5;exitY=0;exitDx=0;exitDy=0;" edge="1" parent="1" source="EcLt65H-t530gYK7MTd_-3" target="EcLt65H-t530gYK7MTd_-6">
          <mxGeometry width="50" height="50" relative="1" as="geometry">
            <mxPoint x="-350" y="480.12" as="sourcePoint" />
            <mxPoint x="-260" y="400.12" as="targetPoint" />
          </mxGeometry>
        </mxCell>
        <mxCell id="EcLt65H-t530gYK7MTd_-6" value="" style="ellipse;whiteSpace=wrap;html=1;aspect=fixed;" vertex="1" parent="1">
          <mxGeometry x="-275" y="324.12" width="26" height="26" as="geometry" />
        </mxCell>
        <mxCell id="EcLt65H-t530gYK7MTd_-7" value="" style="endArrow=none;html=1;rounded=0;entryX=0.5;entryY=1;entryDx=0;entryDy=0;exitX=0.5;exitY=0;exitDx=0;exitDy=0;" edge="1" parent="1" source="EcLt65H-t530gYK7MTd_-6">
          <mxGeometry width="50" height="50" relative="1" as="geometry">
            <mxPoint x="-262" y="324.12" as="sourcePoint" />
            <mxPoint x="-262" y="284.12" as="targetPoint" />
          </mxGeometry>
        </mxCell>
        <mxCell id="EcLt65H-t530gYK7MTd_-8" value="ASOCIACION&lt;br&gt;(Independiente)" style="rounded=0;whiteSpace=wrap;html=1;" vertex="1" parent="1">
          <mxGeometry x="-529" y="-130" width="120" height="60" as="geometry" />
        </mxCell>
        <mxCell id="EcLt65H-t530gYK7MTd_-9" value="EQUIPO&lt;div&gt;(Dependiente)&lt;/div&gt;" style="rounded=0;whiteSpace=wrap;html=1;" vertex="1" parent="1">
          <mxGeometry x="-320" y="8.879999999999999" width="120" height="60" as="geometry" />
        </mxCell>
        <mxCell id="EcLt65H-t530gYK7MTd_-10" value="" style="rhombus;whiteSpace=wrap;html=1;" vertex="1" parent="1">
          <mxGeometry x="-285" y="120" width="48" height="50" as="geometry" />
        </mxCell>
        <mxCell id="EcLt65H-t530gYK7MTd_-11" value="" style="endArrow=none;html=1;rounded=0;entryX=0.5;entryY=0;entryDx=0;entryDy=0;exitX=0.5;exitY=1;exitDx=0;exitDy=0;" edge="1" parent="1" source="EcLt65H-t530gYK7MTd_-10" target="EcLt65H-t530gYK7MTd_-1">
          <mxGeometry width="50" height="50" relative="1" as="geometry">
            <mxPoint x="-261" y="318" as="sourcePoint" />
            <mxPoint x="-262" y="224.12" as="targetPoint" />
          </mxGeometry>
        </mxCell>
        <mxCell id="EcLt65H-t530gYK7MTd_-12" value="" style="endArrow=none;html=1;rounded=0;entryX=0.5;entryY=0;entryDx=0;entryDy=0;exitX=0.5;exitY=1;exitDx=0;exitDy=0;" edge="1" parent="1" source="EcLt65H-t530gYK7MTd_-9" target="EcLt65H-t530gYK7MTd_-10">
          <mxGeometry width="50" height="50" relative="1" as="geometry">
            <mxPoint x="72" y="30.879999999999995" as="sourcePoint" />
            <mxPoint x="74" y="-15.120000000000005" as="targetPoint" />
          </mxGeometry>
        </mxCell>
        <mxCell id="EcLt65H-t530gYK7MTd_-16" value="TORNEO&lt;div&gt;(Dependiente)&lt;/div&gt;" style="rounded=0;whiteSpace=wrap;html=1;" vertex="1" parent="1">
          <mxGeometry x="-529" y="150" width="120" height="60" as="geometry" />
        </mxCell>
        <mxCell id="EcLt65H-t530gYK7MTd_-22" value="" style="rhombus;whiteSpace=wrap;html=1;" vertex="1" parent="1">
          <mxGeometry x="-494" y="15" width="50" height="47.75" as="geometry" />
        </mxCell>
        <mxCell id="EcLt65H-t530gYK7MTd_-23" value="" style="endArrow=none;html=1;rounded=0;entryX=0.5;entryY=1;entryDx=0;entryDy=0;exitX=0.5;exitY=0;exitDx=0;exitDy=0;" edge="1" parent="1" source="EcLt65H-t530gYK7MTd_-22" target="EcLt65H-t530gYK7MTd_-8">
          <mxGeometry width="50" height="50" relative="1" as="geometry">
            <mxPoint x="-345" y="-143.88" as="sourcePoint" />
            <mxPoint x="-270" y="-28.379999999999995" as="targetPoint" />
          </mxGeometry>
        </mxCell>
        <mxCell id="EcLt65H-t530gYK7MTd_-24" value="" style="endArrow=none;html=1;rounded=0;exitX=0.5;exitY=0;exitDx=0;exitDy=0;entryX=0.5;entryY=1;entryDx=0;entryDy=0;" edge="1" parent="1" source="EcLt65H-t530gYK7MTd_-16" target="EcLt65H-t530gYK7MTd_-22">
          <mxGeometry width="50" height="50" relative="1" as="geometry">
            <mxPoint x="-130" y="408.87" as="sourcePoint" />
            <mxPoint x="-510" y="20" as="targetPoint" />
          </mxGeometry>
        </mxCell>
        <mxCell id="EcLt65H-t530gYK7MTd_-32" value="1..N&lt;span style=&quot;white-space: pre;&quot;&gt;&#x9;&lt;/span&gt;" style="text;html=1;align=center;verticalAlign=middle;whiteSpace=wrap;rounded=0;" vertex="1" parent="1">
          <mxGeometry x="-478" y="120" width="60" height="30" as="geometry" />
        </mxCell>
        <mxCell id="EcLt65H-t530gYK7MTd_-33" value="1..1" style="text;html=1;align=center;verticalAlign=middle;whiteSpace=wrap;rounded=0;" vertex="1" parent="1">
          <mxGeometry x="-480" y="-70" width="60" height="30" as="geometry" />
        </mxCell>
        <mxCell id="EcLt65H-t530gYK7MTd_-35" value="1..N" style="text;html=1;align=center;verticalAlign=middle;whiteSpace=wrap;rounded=0;" vertex="1" parent="1">
          <mxGeometry x="-376" y="8.879999999999995" width="60" height="30" as="geometry" />
        </mxCell>
        <mxCell id="EcLt65H-t530gYK7MTd_-45" value="1..N&lt;span style=&quot;white-space: pre;&quot;&gt;&#x9;&lt;/span&gt;" style="text;html=1;align=center;verticalAlign=middle;whiteSpace=wrap;rounded=0;" vertex="1" parent="1">
          <mxGeometry x="-270" y="191.12" width="60" height="30" as="geometry" />
        </mxCell>
        <mxCell id="EcLt65H-t530gYK7MTd_-46" value="1..1" style="text;html=1;align=center;verticalAlign=middle;whiteSpace=wrap;rounded=0;" vertex="1" parent="1">
          <mxGeometry x="-270" y="68.88" width="60" height="30" as="geometry" />
        </mxCell>
        <mxCell id="EcLt65H-t530gYK7MTd_-47" value="" style="endArrow=none;html=1;rounded=0;entryX=1;entryY=0.5;entryDx=0;entryDy=0;exitX=0;exitY=0.5;exitDx=0;exitDy=0;" edge="1" parent="1" source="EcLt65H-t530gYK7MTd_-9" target="EcLt65H-t530gYK7MTd_-22">
          <mxGeometry width="50" height="50" relative="1" as="geometry">
            <mxPoint x="-160" y="90" as="sourcePoint" />
            <mxPoint x="-410" y="40" as="targetPoint" />
          </mxGeometry>
        </mxCell>
        <mxCell id="EcLt65H-t530gYK7MTd_-48" value="PERSONA&lt;div&gt;(Dependiente)&lt;/div&gt;" style="rounded=0;whiteSpace=wrap;html=1;" vertex="1" parent="1">
          <mxGeometry x="293" y="379.36" width="120" height="60" as="geometry" />
        </mxCell>
        <mxCell id="EcLt65H-t530gYK7MTd_-55" value="ASOCIACION&lt;br&gt;(Independiente)" style="rounded=0;whiteSpace=wrap;html=1;" vertex="1" parent="1">
          <mxGeometry x="16" y="-19" width="120" height="60" as="geometry" />
        </mxCell>
        <mxCell id="EcLt65H-t530gYK7MTd_-56" value="EQUIPO&lt;div&gt;(Dependiente)&lt;/div&gt;" style="rounded=0;whiteSpace=wrap;html=1;" vertex="1" parent="1">
          <mxGeometry x="293" y="206.12" width="120" height="60" as="geometry" />
        </mxCell>
        <mxCell id="EcLt65H-t530gYK7MTd_-57" value="" style="rhombus;whiteSpace=wrap;html=1;" vertex="1" parent="1">
          <mxGeometry x="329" y="298.36" width="48" height="50" as="geometry" />
        </mxCell>
        <mxCell id="EcLt65H-t530gYK7MTd_-58" value="" style="endArrow=none;html=1;rounded=0;entryX=0.5;entryY=0;entryDx=0;entryDy=0;exitX=0.5;exitY=1;exitDx=0;exitDy=0;" edge="1" parent="1" source="EcLt65H-t530gYK7MTd_-57" target="EcLt65H-t530gYK7MTd_-48">
          <mxGeometry width="50" height="50" relative="1" as="geometry">
            <mxPoint x="354" y="476.24" as="sourcePoint" />
            <mxPoint x="353" y="382.36" as="targetPoint" />
          </mxGeometry>
        </mxCell>
        <mxCell id="EcLt65H-t530gYK7MTd_-59" value="" style="endArrow=none;html=1;rounded=0;entryX=0.5;entryY=0;entryDx=0;entryDy=0;exitX=0.5;exitY=1;exitDx=0;exitDy=0;" edge="1" parent="1" source="EcLt65H-t530gYK7MTd_-56" target="EcLt65H-t530gYK7MTd_-57">
          <mxGeometry width="50" height="50" relative="1" as="geometry">
            <mxPoint x="687" y="189.12" as="sourcePoint" />
            <mxPoint x="689" y="143.12" as="targetPoint" />
          </mxGeometry>
        </mxCell>
        <mxCell id="EcLt65H-t530gYK7MTd_-60" value="TORNEO&lt;div&gt;(Dependiente)&lt;/div&gt;" style="rounded=0;whiteSpace=wrap;html=1;" vertex="1" parent="1">
          <mxGeometry x="160" y="95" width="120" height="60" as="geometry" />
        </mxCell>
        <mxCell id="EcLt65H-t530gYK7MTd_-61" value="" style="rhombus;whiteSpace=wrap;html=1;" vertex="1" parent="1">
          <mxGeometry x="195" y="-13" width="50" height="47.75" as="geometry" />
        </mxCell>
        <mxCell id="EcLt65H-t530gYK7MTd_-62" value="" style="endArrow=none;html=1;rounded=0;entryX=1;entryY=0.5;entryDx=0;entryDy=0;exitX=0;exitY=0.5;exitDx=0;exitDy=0;" edge="1" parent="1" source="EcLt65H-t530gYK7MTd_-61" target="EcLt65H-t530gYK7MTd_-55">
          <mxGeometry width="50" height="50" relative="1" as="geometry">
            <mxPoint x="200" y="-32.879999999999995" as="sourcePoint" />
            <mxPoint x="275" y="82.62" as="targetPoint" />
          </mxGeometry>
        </mxCell>
        <mxCell id="EcLt65H-t530gYK7MTd_-63" value="" style="endArrow=none;html=1;rounded=0;exitX=0.5;exitY=0;exitDx=0;exitDy=0;entryX=0.5;entryY=1;entryDx=0;entryDy=0;" edge="1" parent="1" source="EcLt65H-t530gYK7MTd_-60" target="EcLt65H-t530gYK7MTd_-61">
          <mxGeometry width="50" height="50" relative="1" as="geometry">
            <mxPoint x="559" y="413.87" as="sourcePoint" />
            <mxPoint x="179" y="25" as="targetPoint" />
          </mxGeometry>
        </mxCell>
        <mxCell id="EcLt65H-t530gYK7MTd_-64" value="1..N&lt;span style=&quot;white-space: pre;&quot;&gt;&#x9;&lt;/span&gt;" style="text;html=1;align=center;verticalAlign=middle;whiteSpace=wrap;rounded=0;" vertex="1" parent="1">
          <mxGeometry x="211" y="65" width="60" height="30" as="geometry" />
        </mxCell>
        <mxCell id="EcLt65H-t530gYK7MTd_-65" value="1..1" style="text;html=1;align=center;verticalAlign=middle;whiteSpace=wrap;rounded=0;" vertex="1" parent="1">
          <mxGeometry x="123" y="-18" width="60" height="30" as="geometry" />
        </mxCell>
        <mxCell id="EcLt65H-t530gYK7MTd_-67" value="1..N&lt;span style=&quot;white-space: pre;&quot;&gt;&#x9;&lt;/span&gt;" style="text;html=1;align=center;verticalAlign=middle;whiteSpace=wrap;rounded=0;" vertex="1" parent="1">
          <mxGeometry x="345" y="349.36" width="60" height="30" as="geometry" />
        </mxCell>
        <mxCell id="EcLt65H-t530gYK7MTd_-68" value="1..1" style="text;html=1;align=center;verticalAlign=middle;whiteSpace=wrap;rounded=0;" vertex="1" parent="1">
          <mxGeometry x="340" y="266.12" width="60" height="30" as="geometry" />
        </mxCell>
        <mxCell id="EcLt65H-t530gYK7MTd_-70" value="" style="rhombus;whiteSpace=wrap;html=1;" vertex="1" parent="1">
          <mxGeometry x="314" y="86.63" width="78" height="76.75" as="geometry" />
        </mxCell>
        <mxCell id="EcLt65H-t530gYK7MTd_-71" value="" style="endArrow=none;html=1;rounded=0;entryX=1;entryY=0.5;entryDx=0;entryDy=0;exitX=0;exitY=0.5;exitDx=0;exitDy=0;" edge="1" parent="1" source="EcLt65H-t530gYK7MTd_-70" target="EcLt65H-t530gYK7MTd_-60">
          <mxGeometry width="50" height="50" relative="1" as="geometry">
            <mxPoint x="344" y="101.12" as="sourcePoint" />
            <mxPoint x="220" y="175" as="targetPoint" />
          </mxGeometry>
        </mxCell>
        <mxCell id="EcLt65H-t530gYK7MTd_-72" value="" style="endArrow=none;html=1;rounded=0;entryX=0.5;entryY=1;entryDx=0;entryDy=0;exitX=0.5;exitY=0;exitDx=0;exitDy=0;" edge="1" parent="1" source="EcLt65H-t530gYK7MTd_-56" target="EcLt65H-t530gYK7MTd_-70">
          <mxGeometry width="50" height="50" relative="1" as="geometry">
            <mxPoint x="294" y="225" as="sourcePoint" />
            <mxPoint x="300" y="185" as="targetPoint" />
          </mxGeometry>
        </mxCell>
        <mxCell id="EcLt65H-t530gYK7MTd_-73" value="1..N&lt;span style=&quot;white-space: pre;&quot;&gt;&#x9;&lt;/span&gt;" style="text;html=1;align=center;verticalAlign=middle;whiteSpace=wrap;rounded=0;" vertex="1" parent="1">
          <mxGeometry x="344" y="176.12" width="60" height="30" as="geometry" />
        </mxCell>
        <mxCell id="EcLt65H-t530gYK7MTd_-74" value="1..N" style="text;html=1;align=center;verticalAlign=middle;whiteSpace=wrap;rounded=0;" vertex="1" parent="1">
          <mxGeometry x="267" y="95" width="60" height="30" as="geometry" />
        </mxCell>
        <mxCell id="EcLt65H-t530gYK7MTd_-75" value="Tabla Intermedia" style="text;html=1;align=center;verticalAlign=middle;whiteSpace=wrap;rounded=0;" vertex="1" parent="1">
          <mxGeometry x="324" y="104" width="60" height="30" as="geometry" />
        </mxCell>
        <mxCell id="EcLt65H-t530gYK7MTd_-76" value="" style="rhombus;whiteSpace=wrap;html=1;" vertex="1" parent="1">
          <mxGeometry x="-100" y="60.88" width="40" height="42.12" as="geometry" />
        </mxCell>
        <mxCell id="EcLt65H-t530gYK7MTd_-77" value="" style="endArrow=none;html=1;rounded=0;entryX=0;entryY=0.5;entryDx=0;entryDy=0;exitX=0.5;exitY=0;exitDx=0;exitDy=0;" edge="1" parent="1" source="EcLt65H-t530gYK7MTd_-76">
          <mxGeometry width="50" height="50" relative="1" as="geometry">
            <mxPoint x="-60" y="40" as="sourcePoint" />
            <mxPoint x="16" y="15.000000000000227" as="targetPoint" />
            <Array as="points">
              <mxPoint x="-80" y="14" />
            </Array>
          </mxGeometry>
        </mxCell>
        <mxCell id="EcLt65H-t530gYK7MTd_-78" value="" style="endArrow=none;html=1;rounded=0;entryX=0.5;entryY=1;entryDx=0;entryDy=0;exitX=1;exitY=0.5;exitDx=0;exitDy=0;" edge="1" parent="1" source="EcLt65H-t530gYK7MTd_-76" target="EcLt65H-t530gYK7MTd_-55">
          <mxGeometry width="50" height="50" relative="1" as="geometry">
            <mxPoint x="-44" y="81.94000000000005" as="sourcePoint" />
            <mxPoint x="16" y="122" as="targetPoint" />
            <Array as="points">
              <mxPoint x="76" y="82" />
            </Array>
          </mxGeometry>
        </mxCell>
        <mxCell id="EcLt65H-t530gYK7MTd_-79" value="&lt;div&gt;USUARIO&lt;/div&gt;&lt;div&gt;(Dependiente)&lt;/div&gt;" style="rounded=0;whiteSpace=wrap;html=1;" vertex="1" parent="1">
          <mxGeometry x="-4" y="379.36" width="120" height="60" as="geometry" />
        </mxCell>
        <mxCell id="EcLt65H-t530gYK7MTd_-80" value="" style="rhombus;whiteSpace=wrap;html=1;" vertex="1" parent="1">
          <mxGeometry x="175" y="384.36" width="48" height="50" as="geometry" />
        </mxCell>
        <mxCell id="EcLt65H-t530gYK7MTd_-81" value="" style="endArrow=none;html=1;rounded=0;exitX=0;exitY=0.5;exitDx=0;exitDy=0;entryX=1;entryY=0.5;entryDx=0;entryDy=0;" edge="1" parent="1" source="EcLt65H-t530gYK7MTd_-80" target="EcLt65H-t530gYK7MTd_-79">
          <mxGeometry width="50" height="50" relative="1" as="geometry">
            <mxPoint x="184" y="546.36" as="sourcePoint" />
            <mxPoint x="146" y="452" as="targetPoint" />
          </mxGeometry>
        </mxCell>
        <mxCell id="EcLt65H-t530gYK7MTd_-82" value="" style="endArrow=none;html=1;rounded=0;entryX=1;entryY=0.5;entryDx=0;entryDy=0;exitX=0;exitY=0.5;exitDx=0;exitDy=0;" edge="1" parent="1" source="EcLt65H-t530gYK7MTd_-48" target="EcLt65H-t530gYK7MTd_-80">
          <mxGeometry width="50" height="50" relative="1" as="geometry">
            <mxPoint x="183" y="336.12" as="sourcePoint" />
            <mxPoint x="519" y="213.24" as="targetPoint" />
          </mxGeometry>
        </mxCell>
        <mxCell id="EcLt65H-t530gYK7MTd_-83" value="1..1" style="text;html=1;align=center;verticalAlign=middle;whiteSpace=wrap;rounded=0;" vertex="1" parent="1">
          <mxGeometry x="106" y="384.36" width="60" height="30" as="geometry" />
        </mxCell>
        <mxCell id="EcLt65H-t530gYK7MTd_-84" value="1..1" style="text;html=1;align=center;verticalAlign=middle;whiteSpace=wrap;rounded=0;" vertex="1" parent="1">
          <mxGeometry x="244" y="384.36" width="60" height="30" as="geometry" />
        </mxCell>
      </root>
    </mxGraphModel>
  </diagram>
</mxfile>
